<?xml version="1.0" encoding="UTF-8" standalone="no"?>
<svg
   xmlns:dc="http://purl.org/dc/elements/1.1/"
   xmlns:cc="http://creativecommons.org/ns#"
   xmlns:rdf="http://www.w3.org/1999/02/22-rdf-syntax-ns#"
   xmlns:svg="http://www.w3.org/2000/svg"
   xmlns="http://www.w3.org/2000/svg"
   xmlns:sodipodi="http://sodipodi.sourceforge.net/DTD/sodipodi-0.dtd"
   xmlns:inkscape="http://www.inkscape.org/namespaces/inkscape"
   xml:space="preserve"
   viewBox="19 19 220.83315 220.83333"
   height="300"
   width="300"
   y="0px"
   x="0px"
   id="Layer_1"
   version="1.1"
   inkscape:version="0.48.5 r10040"
   sodipodi:docname="authz_tutorial.svg"
   inkscape:export-filename="/home/dowwie/tmp/tiles-landing-page/images/authz_tutorial.png"
   inkscape:export-xdpi="90"
   inkscape:export-ydpi="90"><metadata
     id="metadata3037"><rdf:RDF><cc:Work
         rdf:about=""><dc:format>image/svg+xml</dc:format><dc:type
           rdf:resource="http://purl.org/dc/dcmitype/StillImage" /><dc:title></dc:title></cc:Work></rdf:RDF></metadata><defs
     id="defs3035" /><sodipodi:namedview
     pagecolor="#ffffff"
     bordercolor="#666666"
     borderopacity="1"
     objecttolerance="10"
     gridtolerance="10"
     guidetolerance="10"
     inkscape:pageopacity="0"
     inkscape:pageshadow="2"
     inkscape:window-width="1600"
     inkscape:window-height="834"
     id="namedview3033"
     showgrid="false"
     inkscape:zoom="1.5615275"
     inkscape:cx="313.18292"
     inkscape:cy="111.88328"
     inkscape:window-x="0"
     inkscape:window-y="27"
     inkscape:window-maximized="1"
     inkscape:current-layer="g2986" /><g
     id="g2986"
     transform="matrix(3.1591955,0,0,3.579784,-48.053106,81.66474)"><path
       inkscape:export-ydpi="90"
       inkscape:export-xdpi="90"
       inkscape:export-filename="/home/dowwie/MyProjects/tutorials-rs/authz-rs/images/tutorials.png"
       inkscape:connector-curvature="0"
       d="m 90.386572,12.603022 -2.870745,-1.555055 c -0.02345,-0.244695 -0.05158,-0.488813 -0.08177,-0.731791 L 89.901036,8.3026109 C 90.151922,8.0979306 90.264294,7.7949325 90.196326,7.5016468 90.13038,7.2072137 89.8945,6.964808 89.573711,6.8601861 L 86.420075,5.8282458 C 86.34094,5.5892743 86.257995,5.3520097 86.172999,5.1158924 L 88.1402,2.7249995 C 88.340675,2.4820213 88.382001,2.1658662 88.251282,1.8885891 88.120563,1.6124489 87.835092,1.4146399 87.497333,1.3660443 L 84.171886,0.89266489 C 84.042633,0.67198382 83.907811,0.45473706 83.772021,0.23920226 l 1.397491,-2.68418386 c 0.143028,-0.2732756 0.113719,-0.5911505 -0.07708,-0.8392697 -0.190216,-0.2492744 -0.512206,-0.3950561 -0.855856,-0.3836187 l -3.375126,0.1028995 c -0.17439,-0.190943 -0.35215,-0.3801845 -0.533105,-0.5659942 l 0.775492,-2.8768465 c 0.07855,-0.2921436 -0.02052,-0.5980114 -0.263197,-0.8101119 -0.241214,-0.2115229 -0.591253,-0.299007 -0.925114,-0.2304116 l -3.286905,0.6780492 c -0.213078,-0.1577966 -0.429233,-0.3138682 -0.648114,-0.4665133 l 0.118409,-2.9534582 c 0.01172,-0.299007 -0.15358,-0.583145 -0.438377,-0.748942 -0.285471,-0.166928 -0.646795,-0.192087 -0.958439,-0.06804 l -3.066735,1.223461 c -0.247662,-0.118926 -0.495881,-0.236682 -0.746768,-0.350459 l -0.542249,-2.910578 c -0.05481,-0.295003 -0.280781,-0.545412 -0.597145,-0.659757 -0.315571,-0.114919 -0.67751,-0.07777 -0.955185,0.0972 l -2.734164,1.721422 c -0.269058,-0.0749 -0.539669,-0.146922 -0.812743,-0.21553 l -1.179313,-2.760218 c -0.119581,-0.281281 -0.396553,-0.487668 -0.733022,-0.545984 -0.335824,-0.05773 -0.681438,0.04002 -0.914651,0.258407 l -2.301033,2.160494 c -0.277558,-0.02688 -0.557313,-0.05146 -0.836278,-0.07147 l -1.777044,-2.512671 c -0.179665,-0.2544 -0.497845,-0.409345 -0.840206,-0.409345 -0.342331,0 -0.660511,0.154935 -0.839531,0.409345 l -1.777044,2.512671 c -0.279609,0.02003 -0.559248,0.04459 -0.836923,0.07147 l -2.301678,-2.160494 c -0.233301,-0.218392 -0.579501,-0.316155 -0.91468,-0.258407 -0.336469,0.05888 -0.61347,0.264703 -0.733022,0.545984 l -1.179284,2.760221 c -0.273161,0.06861 -0.543567,0.141223 -0.813382,0.215529 l -2.733536,-1.721424 c -0.277675,-0.175515 -0.639611,-0.212668 -0.955822,-0.0972 -0.31556,0.114347 -0.542266,0.364751 -0.597145,0.659754 l -0.542266,2.910581 c -0.250887,0.113775 -0.499144,0.230984 -0.746757,0.350457 l -3.066734,-1.223459 c -0.311639,-0.124624 -0.674891,-0.09892 -0.958436,0.06804 -0.284856,0.165784 -0.451452,0.449935 -0.438386,0.74894 l 0.117588,2.9534602 c -0.218207,0.1526451 -0.434464,0.3087245 -0.648105,0.4665133 L 33.41348,-8.0483373 c -0.333852,-0.068036 -0.684038,0.018993 -0.925771,0.2304116 -0.243032,0.2120953 -0.341692,0.5179683 -0.263284,0.8101119 l 0.774195,2.8768465 c -0.179665,0.1863899 -0.357372,0.375046 -0.531811,0.5659942 L 29.0917,-3.6678726 c -0.340385,-0.00859 -0.665743,0.1343547 -0.855862,0.3836187 -0.190774,0.2481296 -0.219526,0.5659941 -0.07776,0.8392697 l 1.39813,2.68418386 c -0.135907,0.2155296 -0.270495,0.43278416 -0.400493,0.65346263 L 25.830262,1.3660417 c -0.337774,0.048028 -0.622623,0.24584 -0.753943,0.5225448 -0.13066,0.2772797 -0.08819,0.5934348 0.111052,0.836413 l 1.967181,2.3908929 c -0.08558,0.2361095 -0.168557,0.4733741 -0.246959,0.7123534 l -3.154281,1.0319377 c -0.320132,0.1046166 -0.555986,0.3470276 -0.622626,0.6414607 -0.06665,0.2938581 0.04508,0.5962916 0.295307,0.8009667 l 2.467629,2.0135651 c -0.03072,0.242978 -0.05815,0.487666 -0.08166,0.731789 l -2.870739,1.555054 c -0.290746,0.157225 -0.467783,0.435072 -0.467783,0.735221 0,0.300149 0.177057,0.577998 0.467783,0.734648 l 2.870739,1.555052 c 0.02345,0.244695 0.05097,0.488813 0.08166,0.731791 l -2.467629,2.014138 c -0.250212,0.204107 -0.361947,0.507108 -0.295307,0.800394 0.06665,0.294433 0.302494,0.536266 0.622626,0.641461 l 3.154281,1.031937 c 0.0784,0.238972 0.161377,0.476236 0.246959,0.712354 l -1.967181,2.391465 c -0.199918,0.243551 -0.242387,0.559706 -0.111052,0.835841 0.131305,0.277279 0.416823,0.475091 0.754596,0.522544 l 3.324802,0.473377 c 0.130016,0.220681 0.263285,0.437931 0.400493,0.654608 l -1.39813,2.683041 c -0.142413,0.272706 -0.113016,0.590006 0.07776,0.83927 0.190773,0.249847 0.515477,0.395626 0.855862,0.383619 l 3.373801,-0.103472 c 0.175738,0.192088 0.352801,0.380187 0.533119,0.567136 l -0.774189,2.877409 c -0.0784,0.291576 0.02022,0.596297 0.263284,0.808402 0.241068,0.21324 0.591919,0.298432 0.925771,0.229839 l 3.286908,-0.677479 c 0.213634,0.158941 0.429892,0.313296 0.648105,0.465374 l -0.117589,2.95403 c -0.01319,0.299002 0.153522,0.582573 0.438386,0.749509 0.283537,0.166357 0.646798,0.191516 0.958436,0.06689 l 3.066735,-1.222891 c 0.246959,0.120045 0.495225,0.236682 0.746756,0.350457 l 0.542267,2.908866 c 0.05487,0.296143 0.280928,0.546554 0.597145,0.660324 0.315557,0.11492 0.678155,0.07774 0.955821,-0.09663 l 2.73223,-1.722564 c 0.26982,0.0749 0.540965,0.148066 0.814038,0.216674 l 1.179284,2.759078 c 0.119581,0.280137 0.396552,0.487674 0.733022,0.544842 0.335824,0.05945 0.681438,-0.0389 0.91468,-0.258407 l 2.301678,-2.159349 c 0.277558,0.02802 0.557284,0.05146 0.836923,0.07319 l 1.777044,2.512096 c 0.179079,0.253281 0.4972,0.409345 0.839531,0.409345 0.342361,0 0.660512,-0.155507 0.840177,-0.409345 l 1.777073,-2.512096 c 0.279609,-0.02185 0.558603,-0.04517 0.836249,-0.07319 l 2.301033,2.159349 c 0.233301,0.219537 0.57953,0.317875 0.91468,0.258407 0.336469,-0.05773 0.61347,-0.264705 0.733022,-0.544842 l 1.179254,-2.759073 c 0.273162,-0.06861 0.544242,-0.141795 0.814062,-0.216674 l 2.732874,1.722564 c 0.277558,0.17437 0.639614,0.211523 0.955186,0.09663 0.316217,-0.113775 0.542249,-0.364753 0.597145,-0.660323 L 70.88789,37.40899 c 0.250886,-0.113775 0.499164,-0.232103 0.746768,-0.350457 l 3.066735,1.222892 c 0.311644,0.124624 0.674228,0.09949 0.958439,-0.06689 0.284885,-0.166928 0.450804,-0.449935 0.438377,-0.749509 l -0.11753,-2.954046 c 0.21806,-0.152645 0.434479,-0.306437 0.647469,-0.465373 l 3.286905,0.677479 c 0.333831,0.06861 0.684017,-0.01665 0.925114,-0.229839 0.242973,-0.212095 0.341687,-0.516826 0.263197,-0.8084 l -0.774202,-2.877422 c 0.180251,-0.186936 0.358041,-0.37504 0.531815,-0.567136 l 3.375096,0.103472 c 0.340397,0.01197 0.665758,-0.133782 0.855886,-0.383619 0.190803,-0.249274 0.220112,-0.566564 0.07708,-0.83927 l -1.397461,-2.683041 c 0.13658,-0.216675 0.270523,-0.433927 0.399835,-0.654608 l 3.325476,-0.473358 c 0.338433,-0.04746 0.623289,-0.245268 0.753949,-0.522545 0.130719,-0.276135 0.08939,-0.592293 -0.111081,-0.835841 l -1.967202,-2.39146 c 0.085,-0.236109 0.167941,-0.473376 0.247076,-0.712353 l 3.153637,-1.03194 c 0.320788,-0.105189 0.557284,-0.347025 0.622614,-0.641459 0.068,-0.293858 -0.04455,-0.596294 -0.29529,-0.800394 l -2.466981,-2.014137 c 0.02989,-0.242979 0.05745,-0.487669 0.08177,-0.731792 l 2.870744,-1.555052 c 0.290747,-0.156652 0.467774,-0.435071 0.467774,-0.734648 0,-0.299576 -0.176441,-0.578001 -0.467129,-0.73522 z"
       id="path3-6"
       sodipodi:nodetypes="cccccccccccccccccccccccccccccccccccccccscccccccccccccccccccccccccccccccccccccccscccccccccccccccccccccccccccccccccccccccscccccccccccccccccccccccccccccccccccccccscc" /><path
       sodipodi:type="arc"
       style="fill:#ffffff;fill-opacity:1;stroke:#000000;stroke-width:0.1086391;stroke-miterlimit:4;stroke-opacity:0;stroke-dasharray:none"
       id="path3014-7"
       sodipodi:cx="246.23326"
       sodipodi:cy="59.962631"
       sodipodi:rx="39.064316"
       sodipodi:ry="41.786011"
       d="m 285.29758,59.962631 a 39.064316,41.786011 0 1 1 -78.12863,0 39.064316,41.786011 0 1 1 78.12863,0 z"
       transform="matrix(0.69973308,0,0,0.56863875,-115.41532,-20.623287)" /><path
       style="fill:#000000;fill-opacity:1;stroke:#000000;stroke-width:0.06566713;stroke-linejoin:round;stroke-miterlimit:4;stroke-opacity:0;stroke-dasharray:none"
       d="m 49.58227,-11.193705 6.592392,5.1205064 c 0.378616,0.2940715 1.022949,0.2603007 1.448313,-0.075789 l 6.896885,-5.4494174 -14.93759,0.404693 z"
       id="path3850"
       inkscape:connector-curvature="0"
       inkscape:transform-center-x="-79.632446"
       inkscape:transform-center-y="-60.085878" /><path
       style="fill:#000000;fill-opacity:1;stroke:#000000;stroke-width:0.06566713;stroke-linejoin:round;stroke-miterlimit:4;stroke-opacity:0;stroke-dasharray:none"
       d="m 81.923934,2.7447092 -4.485328,6.3674736 c -0.257628,0.3656952 -0.03986,0.8420094 0.488965,1.0706782 L 86.504018,13.8905 81.923934,2.7447066 z"
       id="path3850-5"
       inkscape:connector-curvature="0"
       inkscape:transform-center-x="-22.62255"
       inkscape:transform-center-y="8.9298467" /><path
       style="fill:#000000;fill-opacity:1;stroke:#000000;stroke-width:0.06566713;stroke-linejoin:round;stroke-miterlimit:4;stroke-opacity:0;stroke-dasharray:none"
       d="M 27.473059,13.56698 37.782697,9.7910802 C 38.374795,9.5741977 38.52715,9.0715278 38.125512,8.6611942 L 31.611231,2.0077301 27.473038,13.566974 z"
       id="path3850-6"
       inkscape:connector-curvature="0"
       inkscape:transform-center-x="15.329473"
       inkscape:transform-center-y="-22.454358" /><path
       style="fill:#000000;fill-opacity:1;stroke:#000000;stroke-width:0.06566713;stroke-linejoin:round;stroke-miterlimit:4;stroke-opacity:0;stroke-dasharray:none"
       d="m 47.787025,36.757131 -1.314956,-8.855906 c -0.07547,-0.508607 -0.636196,-0.780712 -1.260047,-0.611845 l -10.116421,2.7392 12.691424,6.728572 z"
       id="path3850-6-2"
       inkscape:connector-curvature="0"
       inkscape:transform-center-x="10.633016"
       inkscape:transform-center-y="6.9450515" /><path
       style="fill:#000000;fill-opacity:1;stroke:#000000;stroke-width:0.06566713;stroke-linejoin:round;stroke-miterlimit:4;stroke-opacity:0;stroke-dasharray:none"
       d="M 80.518559,27.967333 69.243354,26.756212 c -0.647586,-0.06955 -1.123743,0.287921 -1.070605,0.803332 l 0.863008,8.35793 11.482802,-7.950126 z"
       id="path3850-6-9"
       inkscape:connector-curvature="0"
       inkscape:transform-center-x="-10.462755"
       inkscape:transform-center-y="9.5983344" /><path
       sodipodi:type="arc"
       style="fill:#ffffff;fill-opacity:1;stroke:#000000;stroke-width:0.1086391;stroke-linejoin:round;stroke-miterlimit:4;stroke-opacity:0;stroke-dasharray:none"
       id="path3909"
       sodipodi:cx="350.26416"
       sodipodi:cy="8.6037722"
       sodipodi:rx="2.9433963"
       sodipodi:ry="3.3962264"
       d="m 353.20756,8.6037722 a 2.9433963,3.3962264 0 1 1 -5.8868,0 2.9433963,3.3962264 0 1 1 5.8868,0 z"
       transform="matrix(0.68292067,0,0,0.53499948,-182.19989,-14.955879)" /><path
       sodipodi:type="arc"
       style="fill:#ffffff;fill-opacity:1;stroke:#000000;stroke-width:0.1086391;stroke-linejoin:round;stroke-miterlimit:4;stroke-opacity:0;stroke-dasharray:none"
       id="path3909-1"
       sodipodi:cx="350.26416"
       sodipodi:cy="8.6037722"
       sodipodi:rx="2.9433963"
       sodipodi:ry="3.3962264"
       d="m 353.20756,8.6037722 a 2.9433963,3.3962264 0 1 1 -5.8868,0 2.9433963,3.3962264 0 1 1 5.8868,0 z"
       transform="matrix(0.68292067,0,0,0.53499948,-155.75927,2.9716513)" /><path
       sodipodi:type="arc"
       style="fill:#ffffff;fill-opacity:1;stroke:#000000;stroke-width:0.1086391;stroke-linejoin:round;stroke-miterlimit:4;stroke-opacity:0;stroke-dasharray:none"
       id="path3909-2"
       sodipodi:cx="350.26416"
       sodipodi:cy="8.6037722"
       sodipodi:rx="2.9433963"
       sodipodi:ry="3.3962264"
       d="m 353.20756,8.6037722 a 2.9433963,3.3962264 0 1 1 -5.8868,0 2.9433963,3.3962264 0 1 1 5.8868,0 z"
       transform="matrix(0.68292067,0,0,0.53499948,-207.71278,3.0927839)" /><path
       sodipodi:type="arc"
       style="fill:#ffffff;fill-opacity:1;stroke:#000000;stroke-width:0.1086391;stroke-linejoin:round;stroke-miterlimit:4;stroke-opacity:0;stroke-dasharray:none"
       id="path3909-7"
       sodipodi:cx="350.26416"
       sodipodi:cy="8.6037722"
       sodipodi:rx="2.9433963"
       sodipodi:ry="3.3962264"
       d="m 353.20756,8.6037722 a 2.9433963,3.3962264 0 1 1 -5.8868,0 2.9433963,3.3962264 0 1 1 5.8868,0 z"
       transform="matrix(0.68292067,0,0,0.53499948,-165.65518,26.713516)" /><path
       sodipodi:type="arc"
       style="fill:#ffffff;fill-opacity:1;stroke:#000000;stroke-width:0.1086391;stroke-linejoin:round;stroke-miterlimit:4;stroke-opacity:0;stroke-dasharray:none"
       id="path3909-0"
       sodipodi:cx="350.26416"
       sodipodi:cy="8.6037722"
       sodipodi:rx="2.9433963"
       sodipodi:ry="3.3962264"
       d="m 353.20756,8.6037722 a 2.9433963,3.3962264 0 1 1 -5.8868,0 2.9433963,3.3962264 0 1 1 5.8868,0 z"
       transform="matrix(0.68292067,0,0,0.53499948,-197.04376,27.924835)" /><text
       xml:space="preserve"
       style="font-size:11.1704483px;font-style:normal;font-variant:normal;font-weight:normal;font-stretch:normal;line-height:125%;letter-spacing:0px;word-spacing:0px;fill:#000000;fill-opacity:1;stroke:none;font-family:Yanone Kaffeesatz;-inkscape-font-specification:Yanone Kaffeesatz"
       x="35.597084"
       y="17.863527"
       id="text2994"
       sodipodi:linespacing="125%"
       transform="scale(1.250577,0.7996309)"><tspan
         sodipodi:role="line"
         id="tspan2996"
         x="35.597084"
         y="17.863527">authz</tspan></text>
</g></svg>